<svg width="500" height="500" viewBox="0 0 500 500" fill="none" xmlns="http://www.w3.org/2000/svg">
<g clip-path="url(#clip0_566_2)">
<path d="M307.576 85.6069L307.589 85.6244L307.602 85.6417C307.933 86.0849 308.932 87.7517 310.429 90.4481C311.843 92.9958 313.528 96.141 315.151 99.2468C316.356 101.553 317.519 103.82 318.505 105.789C318.178 105.822 317.84 105.857 317.491 105.893C312.409 106.41 305.046 107.123 295.95 107.978C277.762 109.687 252.682 111.959 225.14 114.369C225.139 114.369 225.138 114.369 225.137 114.369L150.564 120.777C165.83 113.186 185.626 103.451 204.004 94.4739C217.64 87.8127 230.481 81.576 240.09 76.9512C244.896 74.638 248.884 72.7327 251.756 71.3804C253.194 70.7033 254.337 70.172 255.157 69.8C255.693 69.5567 255.99 69.4293 256.118 69.3729C258.16 68.9387 262.855 68.25 266.871 67.8986C270.102 67.6159 272.002 67.5318 273.741 67.6493C275.428 67.7632 277.145 68.08 279.946 68.7944C283.539 69.8537 288.639 71.603 290.949 72.6375C293.623 73.9633 297.157 76.3172 300.453 78.9118C303.847 81.5837 306.479 84.1111 307.576 85.6069Z" fill="#019332" stroke="#019332" stroke-width="10"/>
<path d="M64.9014 177.508L64.9487 177.398L64.9907 177.286C67.2084 171.373 72.2726 166.485 77.8948 164.376C77.9921 164.363 78.1109 164.348 78.2533 164.331C78.8086 164.264 79.6187 164.174 80.6836 164.062C82.8077 163.838 85.8716 163.532 89.7798 163.153C97.5926 162.396 108.736 161.353 122.386 160.1C149.685 157.594 186.989 154.252 227.688 150.691C239.543 149.654 250.478 148.695 260.568 147.81C320.83 142.524 350.93 139.884 366.697 139.056C376.062 138.564 379.74 138.762 381.549 139.173C382.451 139.378 382.579 139.471 383.226 139.941C383.656 140.253 384.315 140.731 385.583 141.52L385.644 141.558L385.706 141.594C387.633 142.716 389.715 144.812 391.629 147.692L391.644 147.713L391.658 147.734L394.366 151.72L396.593 173.781L398.424 191.905L348.215 196.298L347.668 196.346C317.032 199.026 301.402 200.393 292.087 201.949C287.314 202.746 283.952 203.629 280.952 204.857C278.108 206.021 275.743 207.44 273.103 209.024L272.802 209.205L272.789 209.213L272.776 209.221C258.508 217.896 247.963 234.215 245.976 250.959L245.976 250.963C245.666 253.589 245.842 259.285 246.208 265.88C246.587 272.698 247.209 281.051 247.938 289.376C248.666 297.701 249.503 306.035 250.314 312.815C251.099 319.374 251.915 325.014 252.676 327.546L252.677 327.55C257.543 343.7 270.592 357.785 286.296 363.992L286.627 364.123C289.503 365.26 292.086 366.282 295.098 366.96C298.278 367.677 301.754 367.978 306.6 367.945C316.05 367.879 331.684 366.511 362.308 363.832L362.868 363.783L413.077 359.39L414.421 377.556L416.048 399.54L414.192 403.786L414.188 403.795L414.184 403.804C412.978 406.591 411.994 408.269 410.816 409.642C409.63 411.025 408.031 412.349 405.26 414.128C405.257 414.131 405.253 414.133 405.25 414.135L402.289 416.015L251.895 429.172L101.739 442.309L97.3761 440.349L97.3106 440.319L97.2443 440.292C94.0923 438.983 91.718 437.29 90.014 435.424C89.1813 434.512 88.6301 433.961 88.239 433.569C87.5324 432.862 87.3483 432.678 86.9697 431.837C86.2897 430.326 85.4966 427.253 84.4788 419.343C82.6832 405.39 80.3839 378.365 75.6913 323.211C75.1496 316.844 74.576 310.102 73.9676 302.962C73.9675 302.962 73.9675 302.961 73.9675 302.961L63.5723 180.594L64.9014 177.508ZM77.6193 164.414C77.5765 164.422 77.5512 164.425 77.5493 164.425C77.5473 164.425 77.5687 164.421 77.6193 164.414Z" fill="#019332" stroke="#019332" stroke-width="10"/>
<path d="M294.887 238.487L294.957 238.456L295.026 238.422C295.667 238.112 297.324 237.574 306.202 236.616C314.754 235.692 329.318 234.418 354.953 232.253L354.955 232.253L411.92 227.423L416.14 229.267L416.149 229.271L416.158 229.275C418.944 230.481 420.622 231.465 421.995 232.643C423.378 233.829 424.702 235.427 426.481 238.198C426.484 238.202 426.486 238.206 426.489 238.209L428.368 241.171L431.176 273.266L433.984 305.362L432.647 308.605C432.646 308.608 432.644 308.612 432.642 308.616C431.371 311.654 430.345 313.458 429.189 314.867C428.041 316.265 426.56 317.526 424.025 319.197L424.017 319.202L424.009 319.208L420.179 321.753L361.989 326.844L303.826 331.933L299.463 329.972L299.427 329.956L299.391 329.94C294.146 327.681 290.15 323.691 288.114 318.894L288.106 318.877L288.099 318.86C288.104 318.871 288.103 318.869 288.097 318.85C288.076 318.787 287.995 318.538 287.87 318.015C287.725 317.403 287.56 316.592 287.381 315.583C287.024 313.569 286.638 310.937 286.243 307.859C285.454 301.712 284.649 293.962 283.969 286.184C283.288 278.407 282.737 270.655 282.45 264.504C282.306 261.423 282.231 258.791 282.236 256.777C282.238 255.768 282.261 254.961 282.298 254.355C282.334 253.792 282.374 253.572 282.371 253.571C282.371 253.571 282.37 253.574 282.368 253.58L282.37 253.575L282.376 253.549C284.09 246.55 288.451 241.365 294.887 238.487ZM359.026 266.285L359.002 266.243L358.977 266.202C355.281 260.186 349 255.085 342.634 252.657C339.018 251.276 334.72 250.765 330.77 250.867C326.862 250.968 322.72 251.685 319.467 253.233C293.859 265.121 294.835 301.392 321.287 311.4L321.297 311.404L321.308 311.408C323.271 312.14 325.113 312.665 327.352 312.887C329.5 313.1 331.823 313.014 334.72 312.761C337.743 312.496 340.084 312.224 342.17 311.624C344.409 310.98 346.114 310.033 347.991 308.835L348.002 308.828C351.165 306.797 353.67 304.862 355.756 302.431C357.851 299.989 359.308 297.297 360.712 294.052L360.731 294.008L360.749 293.964C361.751 291.521 362.587 289.447 362.913 287.051C363.232 284.705 363.031 282.308 362.683 279.197C362.43 276.328 362.112 274.044 361.533 271.98C360.926 269.814 360.089 268.091 359.026 266.285Z" fill="#019332" stroke="#019332" stroke-width="10"/>
</g>
<defs>
<clipPath id="clip0_566_2">
<rect width="400" height="400" fill="white" transform="translate(32.666 67.5283) rotate(-5)"/>
</clipPath>
</defs>
</svg>
